<?xml version="1.0" encoding="utf-8"?>
<!-- Generator: Adobe Illustrator 19.0.0, SVG Export Plug-In . SVG Version: 6.00 Build 0)  -->
<svg version="1.1" id="Capa_1" xmlns="http://www.w3.org/2000/svg" xmlns:xlink="http://www.w3.org/1999/xlink" x="0px" y="0px"
	 viewBox="-223 25 512 512" style="enable-background:new -223 25 512 512;" xml:space="preserve">
<style type="text/css">
	.st0{fill:#AAAAAA;}
	.st1{fill:#820000;}
	.st2{fill:#B52828;}
</style>
<path class="st0" d="M212.7,44.2c-119.2-13.8-240.1-13.8-359.3,0c-43.5,4.7-76.4,41.2-76.4,85v346c0,29.2,23.8,53,53,53
	c25.2,0,46.4-17.7,51.7-41.4c51.6,15.6,102.5,23.6,151.4,23.7c48.9-0.2,99.7-8.1,151.3-23.7c5.3,23.7,26.5,41.4,51.7,41.4
	c29.2,0,53-23.8,53-53v-346C289,85.4,256.2,48.9,212.7,44.2z M183.1,468.7c-51.3,15.9-101.8,24-150,24.1
	c-48.3-0.1-98.8-8.3-150.1-24.1V147.3c100.3-10.2,198.6-10.2,300.1,0V468.7z M271.3,475.2c0,19.5-15.8,35.3-35.3,35.3
	c-19.5,0-35.3-15.8-35.3-35.3V139.4c0-4.5-3.4-8.3-7.9-8.8c-54.1-5.7-107.3-8.5-160.4-8.5c-53,0-105.9,2.8-159.3,8.5
	c-4.5,0.5-7.9,4.3-7.9,8.8V475c0,0.1,0,0.2,0,0.3c-0.1,19.4-15.9,35.2-35.3,35.2c-19.5,0-35.3-15.8-35.3-35.3v-346
	c0-34.8,26.1-63.8,60.7-67.5c117.9-13.6,237.4-13.6,355.3,0c0,0,0,0,0.1,0c34.5,3.7,60.6,32.7,60.6,67.5V475.2z"/>
<path class="st1" d="M183.1,147.3v321.4c-51.3,15.9-101.8,24-150,24.1c-48.3-0.1-98.8-8.3-150.1-24.1V147.3
	C-16.8,137.2,81.5,137.2,183.1,147.3z"/>
<path class="st2" d="M271.3,129.2v346c0,19.5-15.8,35.3-35.3,35.3c-19.5,0-35.3-15.8-35.3-35.3V139.4c0-4.5-3.4-8.3-7.9-8.8
	c-54.1-5.7-107.3-8.5-160.4-8.5c-53,0-105.9,2.8-159.3,8.5c-4.5,0.5-7.9,4.3-7.9,8.8V475c0,0.1,0,0.2,0,0.3
	c-0.1,19.4-15.9,35.2-35.3,35.2c-19.5,0-35.3-15.8-35.3-35.3v-346c0-34.8,26.1-63.8,60.7-67.5c117.9-13.6,237.4-13.6,355.3,0
	c0,0,0,0,0.1,0C245.3,65.4,271.3,94.4,271.3,129.2z"/>
</svg>
